<svg width="356" height="155" viewBox="0 0 356 155" fill="none" xmlns="http://www.w3.org/2000/svg">
<path d="M80.8695 40.8106C85.941 33.7235 88.478 28.1662 88.478 24.1359C88.478 21.2884 87.1237 19.0646 84.4138 17.4648C82.398 16.2847 79.7245 15.6933 76.3881 15.6933C70.2729 15.6933 63.8809 16.4237 57.2108 17.8833C44.6334 20.5931 34.4905 23.7187 26.7779 27.2629C21.0787 29.8349 18.231 32.2315 18.231 34.4539C18.231 35.6366 18.9952 36.7478 20.525 37.7888C20.9409 38.1372 20.872 38.3087 20.317 38.3087C19.7595 38.3087 19.3423 38.2047 19.0654 37.9968C16.9807 36.6088 15.9396 34.8022 15.9396 32.5772C15.9396 30.3548 16.5804 28.148 17.8671 25.9593C19.1512 23.7694 21.2541 21.8771 24.1733 20.2785C30.8434 16.4588 38.8328 13.3669 48.144 11.0042C58.1479 8.43473 67.4928 7.14807 76.1788 7.14807C85.3509 7.14807 91.2555 8.85193 93.8966 12.2557C95.633 14.4093 96.5025 16.5446 96.5025 18.6644C96.5025 20.7841 96.0866 22.8843 95.2522 24.9703C93.7224 29.2085 91.2555 33.3778 87.8529 37.4756L83.9966 42.0608C85.039 42.6184 85.9761 43.3124 86.8105 44.1455C87.5033 44.9799 87.6787 45.6557 87.3304 46.1768C86.9821 46.698 86.3569 46.6642 85.4549 46.0729C84.5516 45.4828 83.4053 44.9448 82.0159 44.4574C72.4279 55.9217 67.008 62.5058 65.7577 64.207C64.5061 65.9109 63.4988 67.2651 62.7346 68.2711C61.969 69.2783 61.4661 69.9567 61.2243 70.3024C60.98 70.652 60.5472 71.2772 59.9207 72.1791C59.2955 73.0824 58.8614 73.8115 58.6184 74.3678C58.374 74.9253 58.079 75.618 57.732 76.4524C57.1744 77.7716 56.8976 79.4221 56.8976 81.4041C56.8976 83.3835 57.732 84.3738 59.3995 84.3738C59.8843 84.3738 60.4419 84.2868 61.0657 84.1139C61.6909 83.9385 62.0041 84.0255 62.0041 84.3738C62.0041 84.7209 61.6038 85.0146 60.8058 85.2602C60.0065 85.5032 59.1383 85.6241 58.1999 85.6241C57.2615 85.6241 56.3244 85.2082 55.386 84.3738C54.4476 83.5395 53.9797 82.2528 53.9797 80.5178C53.9797 78.7801 54.6035 76.7656 55.8552 74.473C57.1055 72.1804 59.0161 69.2796 61.5869 65.7705C64.1578 62.264 67.3356 58.1285 71.1229 53.3692C74.909 48.6111 77.4292 45.3958 78.6795 43.7283C76.9418 43.5203 74.458 43.4164 71.2282 43.4164C67.9971 43.4164 63.5664 44.0077 57.9386 45.1878C57.1042 45.3269 56.0111 45.5894 54.6555 45.9702C53.3012 46.3523 52.3109 46.6135 51.6857 46.7526C49.1136 47.3089 47.6215 47.2725 47.2043 46.6473C46.2308 46.0924 45.746 45.4321 45.746 44.6679C45.746 43.905 46.4049 42.9849 47.7255 41.9062C49.0447 40.83 51.1645 40.0139 54.0837 39.4576C57.0015 38.9014 60.0234 38.6232 63.1518 38.6232C70.1677 38.6219 76.0749 39.351 80.8695 40.8106Z" fill="#$color-principal"/>
<path d="M58.1999 92.7723C56.3179 92.7723 53.478 92.242 50.6368 89.7155C48.9004 88.1715 46.8313 85.324 46.8313 80.5178C46.8313 77.5364 47.7307 74.4393 49.5802 71.0485C50.9968 68.4518 53.0387 65.3417 55.8214 61.5441C57.9919 58.5835 60.5952 55.1731 63.5807 51.3807C62.2888 51.603 60.8968 51.8707 59.4073 52.1826L59.1201 52.2372C58.7289 52.3022 57.9724 52.4621 56.5895 52.8507C55.0624 53.2821 53.9914 53.5616 53.2298 53.7305C51.4738 54.11 50.0273 54.292 48.7743 54.292C45.9423 54.292 44.0252 53.3406 42.7722 52.2944C40.1052 50.4424 38.5976 47.7118 38.5976 44.6667C38.5976 40.1309 42.0652 37.2989 43.2051 36.3684C45.4809 34.5099 48.6015 33.2232 52.7463 32.4343C56.0904 31.7988 59.5919 31.4752 63.1518 31.4752C68.5287 31.4752 73.4014 31.8846 77.706 32.6981C81.0242 27.3422 81.3283 24.8573 81.3283 24.136C81.3283 24.0645 81.3244 24.0164 81.3205 23.9891C81.2932 23.9852 81.1386 23.8332 80.7798 23.6213C80.2951 23.338 79.0499 22.8415 76.3868 22.8415C70.8136 22.8415 64.8765 23.5225 58.738 24.8664C46.7052 27.4579 36.9638 30.4484 29.7621 33.7587C28.7223 34.2265 27.8879 34.645 27.2198 35.0089C28.0504 36.7557 28.1803 38.7494 27.5045 40.6144C26.6558 42.9563 24.3215 45.4582 20.3158 45.4582C18.2752 45.4582 16.4829 44.924 14.9817 43.8674C10.9877 41.1563 8.78857 37.1521 8.78857 32.5773C8.78857 29.0695 9.76986 25.6228 11.7025 22.336C13.6287 19.053 16.648 16.2613 20.6719 14.0441C27.8619 9.9346 36.5115 6.58018 46.3816 4.07573C56.9106 1.37244 66.9418 0 76.1788 0C87.7476 0 95.377 2.55643 99.4996 7.81615C102.254 11.2512 103.65 14.8993 103.65 18.6644C103.65 21.6471 103.073 24.6221 101.935 27.5086C100.179 32.3277 97.4032 37.0806 93.6795 41.6437C95.3354 44.9032 94.666 48.0614 93.2766 50.1435C91.2945 53.1145 87.4903 54.418 83.981 53.2536C75.0195 63.9978 72.2238 67.477 71.5168 68.4414C70.2378 70.1829 69.2072 71.5671 68.426 72.5951C67.745 73.4931 67.2953 74.0949 67.0795 74.4042L65.7928 76.2562C65.3002 76.9684 65.1547 77.2609 65.1495 77.2726C65.0975 77.3908 65.0429 77.5169 64.9844 77.6508C67.4759 78.8646 69.1513 81.3912 69.1513 84.3765C69.1513 87.1812 67.5084 90.6824 62.9009 92.0952C61.4102 92.5462 59.8349 92.7723 58.1999 92.7723Z" fill="#$color-principal"/>
<path d="M109.844 59.987C113.526 57.9726 115.368 55.923 115.368 53.8384C115.368 51.7537 114.116 50.7127 111.616 50.7127C110.433 50.7127 109.183 51.0246 107.863 51.651C104.944 52.9728 102.13 55.2641 99.4204 58.5301C96.0866 62.5604 94.4178 66.3112 94.4178 69.7852C94.4178 71.1056 94.7817 72.339 95.5121 73.4853C96.2426 74.6316 97.5436 75.2048 99.4204 75.2048C102.687 75.2048 106.82 73.4853 111.824 70.0451C116.826 66.6062 121.133 63.1504 124.747 59.6751C125.581 58.8407 125.998 58.807 125.998 59.5712C125.998 60.0572 125.789 60.4744 125.373 60.8214C122.801 63.1842 121.081 64.7659 120.213 65.5626C119.344 66.3619 117.624 67.7876 115.055 69.8359C112.483 71.8854 110.398 73.3281 108.8 74.1611C103.865 76.7306 99.6803 78.0172 96.2413 78.0172C92.8022 78.0172 90.0923 77.2348 88.1115 75.6713C86.1321 74.1091 85.1417 71.9374 85.1417 69.1574C85.1417 63.2531 87.7801 58.1623 93.0622 53.889C98.3429 49.6171 103.867 47.4791 109.635 47.4791C113.525 47.4791 116.131 48.3135 117.451 49.981C118.008 50.8154 118.286 51.7004 118.286 52.6388C118.286 53.5771 117.974 54.6026 117.347 55.7125C116.097 57.8673 113.751 59.7609 110.312 61.3933C106.873 63.0269 103.624 63.8418 100.568 63.8418C99.3853 63.8418 98.7445 63.7379 98.6392 63.5299C98.5353 63.322 98.621 63.166 98.9005 63.062C99.1773 62.9568 99.5594 62.9048 100.047 62.9048C102.824 62.9048 106.092 61.9326 109.844 59.987Z" fill="#$color-principal"/>
<path d="M96.2426 85.1654C91.1724 85.1654 86.947 83.8579 83.6821 81.282C79.9623 78.3461 77.9945 74.1534 77.9945 69.1588C77.9945 61.1308 81.6506 53.9294 88.5664 48.3343C95.1287 43.0252 102.217 40.3336 109.636 40.3336C115.803 40.3336 120.32 42.0882 123.057 45.5479L123.4 46.0183C124.587 47.7976 125.274 49.8107 125.409 51.8824C125.51 51.8785 125.611 51.8759 125.712 51.8759C129.882 51.8759 133.148 55.2576 133.148 59.5725C133.148 62.0873 132.05 64.4748 130.129 66.1605L125.049 70.8301C124.034 71.7646 122.273 73.2267 119.513 75.4257C116.557 77.782 114.136 79.4417 112.112 80.4983C106.074 83.6396 100.886 85.1654 96.2426 85.1654Z" fill="#$color-principal"/>
<path d="M145.487 59.987C149.17 57.9726 151.011 55.923 151.011 53.8384C151.011 51.7537 149.76 50.7127 147.259 50.7127C146.076 50.7127 144.826 51.0246 143.507 51.651C140.588 52.9728 137.774 55.2641 135.064 58.5301C131.73 62.5604 130.061 66.3112 130.061 69.7852C130.061 71.1056 130.425 72.339 131.156 73.4853C131.886 74.6316 133.187 75.2048 135.064 75.2048C138.33 75.2048 142.463 73.4853 147.467 70.0451C152.47 66.6062 156.777 63.1504 160.39 59.6751C161.224 58.8407 161.642 58.807 161.642 59.5712C161.642 60.0572 161.432 60.4744 161.016 60.8214C158.444 63.1842 156.725 64.7659 155.857 65.5626C154.987 66.3619 153.268 67.7876 150.698 69.8359C148.126 71.8854 146.041 73.3281 144.444 74.1611C139.509 76.7306 135.324 78.0172 131.885 78.0172C128.446 78.0172 125.736 77.2348 123.755 75.6713C121.775 74.1091 120.785 71.9374 120.785 69.1574C120.785 63.2531 123.423 58.1623 128.706 53.889C133.986 49.6171 139.51 47.4791 145.278 47.4791C149.168 47.4791 151.774 48.3135 153.095 49.981C153.651 50.8154 153.929 51.7004 153.929 52.6388C153.929 53.5771 153.617 54.6026 152.991 55.7125C151.74 57.8673 149.394 59.7609 145.955 61.3933C142.516 63.0269 139.267 63.8418 136.211 63.8418C135.029 63.8418 134.388 63.7379 134.283 63.5299C134.179 63.322 134.264 63.166 134.544 63.062C134.821 62.9568 135.203 62.9048 135.69 62.9048C138.468 62.9048 141.735 61.9326 145.487 59.987Z" fill="#$color-principal"/>
<path d="M131.886 85.1654C126.816 85.1654 122.59 83.8579 119.325 81.282C115.606 78.3461 113.638 74.1534 113.638 69.1588C113.638 61.1308 117.294 53.9294 124.21 48.3343C130.772 43.0252 137.861 40.3336 145.28 40.3336C151.447 40.3336 155.963 42.0882 158.7 45.5479L159.044 46.0183C160.23 47.7976 160.918 49.8107 161.053 51.8824C161.153 51.8785 161.254 51.8759 161.356 51.8759C165.525 51.8759 168.791 55.2576 168.791 59.5725C168.791 62.0873 167.693 64.4748 165.772 66.1605L160.693 70.8301C159.678 71.7646 157.917 73.2267 155.156 75.4257C152.201 77.782 149.779 79.4417 147.755 80.4983C141.717 83.6396 136.53 85.1654 131.886 85.1654Z" fill="#$color-principal"/>
<path d="M164.663 71.9712C164.663 73.8466 165.602 74.785 167.477 74.785C168.587 74.785 170.343 74.334 172.741 73.4307C175.138 72.5288 178.247 70.5481 182.069 67.49C185.889 64.4332 188.461 62.2277 189.782 60.8721C191.102 59.5179 191.902 58.8577 192.18 58.8927C192.457 58.9278 192.561 59.1371 192.492 59.5179C192.422 59.9 192.247 60.2314 191.972 60.5082C186.065 66.5516 181.167 70.8951 177.276 73.5347C173.383 76.1756 169.771 77.4948 166.436 77.4948C163.586 77.4948 161.605 76.8332 160.495 75.5154C159.384 74.1962 158.828 72.6678 158.828 70.9302C158.828 67.8045 159.938 64.0524 162.163 59.6751C158.131 63.9835 156.118 65.3728 156.118 63.8431C156.118 63.5663 156.327 63.2544 156.743 62.9048C160.008 60.2665 163.517 56.4429 167.271 51.4418C174.149 42.4793 179.534 34.593 183.425 27.7841C184.119 26.4636 184.467 25.4902 184.467 24.8664C184.467 23.4068 183.668 23.13 182.071 24.032C180.263 24.9352 179.29 25.2822 179.153 25.0743C179.012 24.8664 179.116 24.5882 179.465 24.2399C181.132 22.9884 183.425 21.8083 186.344 20.6958C189.262 19.5858 191.659 18.9932 193.534 18.9243C196.453 18.9243 197.912 19.8276 197.912 21.6341C197.912 22.6764 197.406 24.0671 196.401 25.8034C195.393 27.5411 192.509 30.9969 187.75 36.1734C182.991 41.3499 180.09 44.5978 179.049 45.9182C171.891 55.2979 167.338 62.767 165.395 68.3244C164.907 69.7839 164.663 70.9991 164.663 71.9712Z" fill="#$color-principal"/>
<path d="M166.436 84.6429C161.393 84.6429 157.555 83.121 155.027 80.1201C152.837 77.5233 151.679 74.3444 151.679 70.9302C151.679 70.5741 151.688 70.2141 151.707 69.8515C151.191 69.4226 150.728 68.9196 150.337 68.3542C149.713 67.4497 148.968 65.933 148.968 63.8431C148.968 62.4434 149.381 59.7492 152.15 57.4267C155.038 55.0912 158.168 51.6614 161.551 47.1516C166.413 40.8145 170.516 35.0245 173.82 29.8401C173.595 29.588 173.386 29.3177 173.196 29.0304C171.154 26.0139 171.643 21.9421 174.417 19.1764L174.77 18.8242L175.172 18.524C177.396 16.8552 180.217 15.3814 183.797 14.0181C187.488 12.6131 190.584 11.8827 193.266 11.7827L193.531 11.7775C201.494 11.7775 205.057 16.7292 205.057 21.6354C205.057 24.0099 204.272 26.4727 202.585 29.3866C201.694 30.9215 199.805 33.6208 193.01 41.012C186.958 47.5948 185.18 49.6872 184.657 50.3488C180.517 55.7722 177.671 60.0429 175.715 63.3727C176.293 62.9399 176.921 62.4551 177.601 61.9118C182.058 58.3469 183.898 56.669 184.658 55.8879C186.458 54.0411 188.695 51.7446 192.156 51.7446L193.052 51.7992C195.161 52.0708 196.977 53.1352 198.199 54.8027C199.443 56.4988 199.913 58.6211 199.526 60.7837C199.192 62.6163 198.327 64.2616 197.025 65.5652C190.777 71.9569 185.612 76.52 181.289 79.4533C176.21 82.8961 171.213 84.6429 166.436 84.6429Z" fill="#$color-principal"/>
<path d="M235.015 49.9823C232.164 52.9 229.786 56.6002 227.875 61.0814C225.963 65.5626 225.009 68.7078 225.009 70.5143C225.009 72.3221 225.72 73.2241 227.146 73.2241C228.569 73.2241 230.932 72.1818 234.233 70.0971C237.532 68.0125 241.303 65.0609 245.541 61.2399C246.443 60.4056 246.897 60.5095 246.897 61.5519C246.897 61.6909 246.826 61.83 246.689 61.9678C243.354 64.8868 240.54 67.2834 238.246 69.1588C235.953 71.0342 233.226 72.8238 230.064 74.5264C226.902 76.2302 224.314 77.0802 222.299 77.0802C219.797 77.0802 217.939 76.5226 216.724 75.4127C215.506 74.3028 214.9 73.0863 214.9 71.7646C214.9 69.2627 215.351 67.2834 216.254 65.8251C217.156 64.3656 218.686 62.3512 220.84 59.7804C220.074 60.4056 218.876 61.4479 217.244 62.9061C215.61 64.3656 214.482 65.3391 213.858 65.8251C213.233 66.3112 212.918 66.1735 212.918 65.408C212.918 64.9232 213.476 64.2279 214.586 63.3233C215.696 62.4213 218.112 60.1274 221.829 56.4442C225.545 52.7623 228.083 50.5736 229.437 49.8783C230.792 49.1843 231.902 48.836 232.771 48.836C233.639 48.836 234.283 48.9582 234.699 49.1999C235.119 49.4442 235.222 49.7055 235.015 49.9823ZM236.369 44.4587C235.603 43.8336 235.291 42.9316 235.43 41.749C235.568 40.5689 236.195 39.3186 237.306 37.9968C238.416 36.6777 239.912 36.0175 241.787 36.0175C242.344 36.0175 242.934 36.2774 243.559 36.7999C244.184 37.3197 244.427 38.1892 244.289 39.4057C244.15 40.6221 243.594 41.7671 242.622 42.8446C241.648 43.9233 240.554 44.616 239.34 44.9292C238.123 45.2398 237.133 45.0839 236.369 44.4587Z" fill="#$color-principal"/>
<path d="M222.299 84.227C217.969 84.227 214.47 83.0352 211.9 80.6868C208.472 77.5585 207.752 74.1066 207.752 71.7633C207.752 71.4462 207.757 71.1317 207.769 70.821C207.316 70.322 206.928 69.7566 206.614 69.1315C206.054 68.0125 205.771 66.7596 205.771 65.4054C205.771 61.2789 208.898 58.7342 210.076 57.7777C210.499 57.432 211.995 56.1258 216.8 51.3638C222.402 45.8143 224.683 44.2833 226.178 43.5165C226.893 43.1513 227.584 42.8394 228.26 42.5846C228.243 42.0349 228.268 41.4747 228.335 40.9094C228.637 38.3283 229.818 35.7965 231.841 33.3935C234.3 30.4744 237.832 28.868 241.791 28.868C243.352 28.868 245.722 29.2904 248.14 31.3075C249.592 32.5162 251.958 35.2858 251.396 40.2128C251.083 42.9408 249.917 45.4348 247.93 47.6338C246.236 49.5105 244.254 50.8375 242.029 51.5822C241.782 52.5439 241.344 53.4628 240.731 54.279L240.132 54.9769C238.907 56.2298 237.775 57.7075 236.746 59.3918C238.025 58.3404 239.363 57.185 240.757 55.9283C242.455 54.3596 244.404 53.533 246.481 53.533C250.148 53.533 254.048 56.3428 254.048 61.5493C254.048 63.5923 253.23 65.5353 251.746 67.0195L251.399 67.3445C248.027 70.2947 245.126 72.7666 242.774 74.6888C240.139 76.845 237.004 78.9075 233.455 80.818C229.197 83.1119 225.547 84.227 222.299 84.227ZM237.306 38.1008C237.279 38.1827 237.215 38.3608 237.189 38.5895C237.099 39.3732 237.51 41.064 238.99 42.2948C239.469 42.6938 240.494 43.1656 241.789 43.1656C241.934 43.1539 242.223 43.046 242.48 42.8667C242.5 42.7874 242.516 42.6925 242.531 42.582C242.65 41.567 242.189 39.9853 240.893 38.9261C240.128 38.2997 239.144 37.9371 238.199 37.9371C237.865 37.9371 237.643 37.9839 237.565 38.0059C237.455 38.0319 237.368 38.0696 237.306 38.1008Z" fill="#$color-principal"/>
<path d="M262.32 40.4987C263.847 38.2048 265.082 36.3813 266.021 35.0271C266.959 33.6715 267.704 32.6812 268.261 32.0561C268.818 31.4322 270.068 30.8929 272.014 30.4419C273.958 29.9896 275.833 29.7648 277.641 29.7648C279.448 29.7648 280.351 29.9558 280.351 30.3379C280.351 30.72 278.858 32.3355 275.871 35.1844C272.882 38.0332 269.408 41.8191 265.447 46.5434C270.172 47.3089 273.265 48.8022 274.723 51.0246C275.28 51.9993 275.366 52.6232 274.985 52.9C274.601 53.1794 274.166 53.0755 273.681 52.5881C272.222 51.1286 269.894 50.3995 266.698 50.3995C265.308 50.3995 263.745 50.5385 262.008 50.8154C256.381 58.0428 252.836 63.9471 251.378 68.5336C250.891 69.8541 250.648 70.9653 250.648 71.8672C250.648 74.3002 251.654 75.5154 253.669 75.5154C255.822 75.5154 258.845 74.0234 262.737 71.0342C267.808 67.2145 272.222 63.426 275.975 59.6751C276.668 58.9109 277.121 58.7368 277.329 59.154C277.537 59.5712 277.363 60.0234 276.81 60.5095C270.832 66.7635 265.813 71.3669 261.748 74.3184C257.684 77.2699 253.948 78.7476 250.545 78.7476C245.888 78.7476 243.561 76.2809 243.561 71.3487C243.561 68.9872 244.222 66.1734 245.541 62.9061L243.665 64.6775C243.11 65.2351 242.711 65.391 242.467 65.1467C242.224 64.9037 242.102 64.6775 242.102 64.4696C242.102 64.2616 242.381 63.9146 242.936 63.4273C248.008 58.9811 251.483 55.6098 253.36 53.3185C252.038 53.8046 251.153 53.8384 250.702 53.4225C250.249 53.0053 249.937 52.4503 249.764 51.755C249.59 51.0623 249.937 50.2097 250.806 49.2012C251.674 48.1952 252.958 47.4661 254.662 47.0126C256.365 46.5603 257.632 46.3003 258.467 46.2302C259.506 44.7031 260.791 42.79 262.32 40.4987Z" fill="#$color-principal"/>
<path d="M250.544 85.8944C241.959 85.8944 236.412 80.1837 236.412 71.3474C236.412 70.6364 236.449 69.9112 236.525 69.1678C235.503 67.7746 234.952 66.1448 234.952 64.4683C234.952 60.9241 237.409 58.7653 238.216 58.0557C240.102 56.4039 241.648 55.0015 242.914 53.8149C242.883 53.7019 242.852 53.5888 242.825 53.4744C242.298 51.3742 242.31 48.1003 245.393 44.5289C247.211 42.4195 249.712 40.9288 252.823 40.1022C253.317 39.971 253.781 39.854 254.22 39.75C254.874 38.7779 255.593 37.7044 256.375 36.5295C257.929 34.1966 259.188 32.3368 260.145 30.9552C261.277 29.319 262.16 28.1571 262.923 27.3006C264.544 25.4798 266.85 24.2997 270.397 23.477C272.861 22.9051 275.298 22.614 277.641 22.614C286.789 22.614 287.5 28.5249 287.5 30.3353C287.5 33.8223 285.447 35.9264 280.805 40.3544C279.779 41.3317 278.68 42.4403 277.513 43.6789C278.789 44.6627 279.848 45.8025 280.701 47.1009L280.933 47.4817C282.331 49.9303 282.57 52.0981 282.216 53.8903C282.819 54.4765 283.33 55.1705 283.723 55.9555C285.353 59.2254 284.6 62.9697 281.821 65.6107C275.557 72.1531 270.363 76.8956 265.949 80.1006C260.655 83.945 255.472 85.8944 250.544 85.8944ZM265.848 57.571C264.67 59.1578 263.66 60.5979 262.799 61.904C264.57 60.4588 266.238 59.0214 267.797 57.5983C267.328 57.5515 266.633 57.5268 265.848 57.571Z" fill="#$color-principal"/>
<path d="M80.8696 35.8693C85.9411 28.7822 88.4781 23.2249 88.4781 19.1946C88.4781 16.3471 87.1238 14.1234 84.4139 12.5248C82.3981 11.3447 79.7246 10.7533 76.3882 10.7533C70.273 10.7533 63.881 11.4838 57.2109 12.9433C44.6335 15.6518 34.4905 18.78 26.778 22.3229C21.0788 24.8949 18.2311 27.2902 18.2311 29.5139C18.2311 30.6966 18.9953 31.8065 20.5251 32.8489C20.941 33.1972 20.8721 33.3687 20.3171 33.3687C19.7596 33.3687 19.3424 33.2648 19.0655 33.0568C16.9808 31.6688 15.9397 29.8609 15.9397 27.6372C15.9397 25.4135 16.5805 23.208 17.8672 21.0194C19.1513 18.8281 21.2542 16.9371 24.1734 15.3385C30.8435 11.5175 38.8329 8.42566 48.1441 6.06288C58.1493 3.49345 67.4942 2.20679 76.1802 2.20679C85.3523 2.20679 91.2569 3.91064 93.898 7.31445C95.6344 9.46799 96.5039 11.6046 96.5039 13.7244C96.5039 15.8441 96.088 17.9444 95.2536 20.0303C93.7238 24.2672 91.2569 28.4378 87.8543 32.5343L83.998 37.1208C85.0404 37.6771 85.9775 38.3724 86.8119 39.2055C87.5047 40.0412 87.6801 40.7157 87.3318 41.2382C86.9835 41.758 86.3583 41.7255 85.4563 41.1342C84.553 40.5428 83.4066 40.0048 82.0173 39.5174C72.4292 50.983 67.0094 57.5658 65.7591 59.2683C64.5075 60.9722 63.5002 62.3251 62.736 63.3324C61.9704 64.3396 61.4674 65.018 61.2257 65.3637C60.9813 65.7147 60.5485 66.3385 59.9221 67.2418C59.2956 68.145 58.8628 68.8741 58.6198 69.4304C58.3754 69.9866 58.0804 70.6794 57.7334 71.515C57.1758 72.8329 56.8989 74.4848 56.8989 76.4654C56.8989 78.4461 57.7334 79.4352 59.4009 79.4352C59.8857 79.4352 60.4433 79.3494 61.0671 79.1765C61.6923 79.0011 62.0055 79.0882 62.0055 79.4352C62.0055 79.7822 61.6052 80.0772 60.8072 80.3215C60.0079 80.5659 59.1397 80.6867 58.2013 80.6867C57.2629 80.6867 56.3258 80.2708 55.3874 79.4352C54.449 78.6021 53.9811 77.3154 53.9811 75.5791C53.9811 73.8427 54.6049 71.827 55.8566 69.5357C57.1069 67.2431 59.0175 64.3422 61.5883 60.8318C64.1592 57.3267 67.337 53.1911 71.1243 48.4318C74.9104 43.6724 77.4306 40.4584 78.6809 38.7909C76.9432 38.583 74.4594 38.479 71.2296 38.479C67.9985 38.479 63.5678 39.0703 57.94 40.2504C57.1056 40.3895 56.0125 40.652 54.6569 41.0328C53.3026 41.4136 52.3122 41.6749 51.6871 41.8152C49.1149 42.3715 47.6229 42.3351 47.2057 41.7086C46.2322 41.155 45.7474 40.4948 45.7474 39.7293C45.7474 38.9677 46.4063 38.0462 47.7268 36.9675C49.0461 35.8914 51.1659 35.0765 54.0851 34.5202C57.0029 33.964 60.0248 33.6845 63.1532 33.6845C70.1677 33.6819 76.075 34.4098 80.8696 35.8693Z" fill="white"/>
<path d="M109.844 55.047C113.526 53.0312 115.368 50.983 115.368 48.897C115.368 46.8123 114.116 45.7726 111.616 45.7726C110.433 45.7726 109.183 46.0845 107.863 46.7097C104.944 48.0327 102.13 50.324 99.4205 53.5888C96.0867 57.6203 94.4179 61.3711 94.4179 64.8438C94.4179 66.1643 94.7818 67.3977 95.5122 68.5453C96.2427 69.6903 97.5437 70.2634 99.4205 70.2634C102.687 70.2634 106.82 68.5453 111.824 65.1051C116.826 61.6662 121.134 58.2104 124.747 54.7351C125.581 53.8994 125.998 53.8669 125.998 54.6311C125.998 55.1159 125.789 55.5344 125.373 55.8801C122.801 58.2428 121.082 59.8245 120.213 60.6212C119.344 61.4205 117.624 62.8475 115.055 64.8958C112.483 66.9441 110.398 68.3867 108.801 69.2211C103.865 71.7905 99.6804 73.0772 96.2414 73.0772C92.8023 73.0772 90.0924 72.2948 88.1116 70.7313C86.1309 69.1678 85.1418 66.9974 85.1418 64.2174C85.1418 58.313 87.7802 53.221 93.0622 48.949C98.343 44.677 103.867 42.5391 109.635 42.5391C113.525 42.5391 116.131 43.3721 117.451 45.0396C118.008 45.8753 118.286 46.7604 118.286 47.6974C118.286 48.6371 117.974 49.6625 117.347 50.7711C116.097 52.9259 113.751 54.8195 110.312 56.4519C106.873 58.0869 103.624 58.9018 100.568 58.9018C99.3854 58.9018 98.7446 58.7978 98.6393 58.5899C98.5354 58.3819 98.6211 58.2247 98.9006 58.1207C99.1774 58.0167 99.5595 57.9634 100.047 57.9634C102.824 57.9634 106.092 56.9913 109.844 55.047Z" fill="white"/>
<path d="M145.488 55.047C149.17 53.0312 151.011 50.983 151.011 48.897C151.011 46.8123 149.76 45.7726 147.259 45.7726C146.076 45.7726 144.826 46.0845 143.507 46.7097C140.588 48.0327 137.774 50.324 135.064 53.5888C131.73 57.6203 130.061 61.3711 130.061 64.8438C130.061 66.1643 130.425 67.3977 131.156 68.5453C131.886 69.6903 133.187 70.2634 135.064 70.2634C138.33 70.2634 142.463 68.5453 147.467 65.1051C152.47 61.6662 156.777 58.2104 160.39 54.7351C161.225 53.8994 161.642 53.8669 161.642 54.6311C161.642 55.1159 161.433 55.5344 161.017 55.8801C158.444 58.2428 156.725 59.8245 155.857 60.6212C154.987 61.4205 153.268 62.8475 150.698 64.8958C148.126 66.9441 146.041 68.3867 144.444 69.2211C139.509 71.7905 135.324 73.0772 131.885 73.0772C128.446 73.0772 125.736 72.2948 123.755 70.7313C121.774 69.1678 120.785 66.9974 120.785 64.2174C120.785 58.313 123.424 53.221 128.706 48.949C133.986 44.677 139.51 42.5391 145.278 42.5391C149.168 42.5391 151.774 43.3721 153.095 45.0396C153.651 45.8753 153.929 46.7604 153.929 47.6974C153.929 48.6371 153.617 49.6625 152.991 50.7711C151.741 52.9259 149.395 54.8195 145.955 56.4519C142.516 58.0869 139.267 58.9018 136.212 58.9018C135.029 58.9018 134.388 58.7978 134.283 58.5899C134.179 58.3819 134.265 58.2247 134.544 58.1207C134.821 58.0167 135.203 57.9634 135.69 57.9634C138.468 57.9634 141.735 56.9913 145.488 55.047Z" fill="white"/>
<path d="M164.664 67.0312C164.664 68.9066 165.602 69.8462 167.477 69.8462C168.587 69.8462 170.343 69.3939 172.741 68.4907C175.138 67.59 178.247 65.6093 182.069 62.5512C185.889 59.4944 188.461 57.2889 189.782 55.9334C191.102 54.5778 191.902 53.9176 192.18 53.954C192.457 53.9891 192.561 54.1983 192.492 54.5778C192.422 54.9612 192.247 55.2913 191.972 55.5682C186.065 61.6116 181.167 65.955 177.276 68.5946C173.383 71.2369 169.771 72.5547 166.436 72.5547C163.586 72.5547 161.605 71.8945 160.495 70.5753C159.384 69.2575 158.828 67.7278 158.828 65.9914C158.828 62.8644 159.938 59.1123 162.163 54.7364C158.131 59.0434 156.118 60.4328 156.118 58.9044C156.118 58.6276 156.327 58.3156 156.743 57.9647C160.008 55.3277 163.517 51.5041 167.271 46.5017C174.149 37.5393 179.534 29.6542 183.425 22.844C184.119 21.5236 184.467 20.5514 184.467 19.9276C184.467 18.4681 183.668 18.1912 182.071 19.0919C180.263 19.9952 179.291 20.3435 179.153 20.1355C179.012 19.9276 179.116 19.6482 179.465 19.2999C181.132 18.0483 183.425 16.8682 186.344 15.7557C189.262 14.6458 191.659 14.0544 193.534 13.9843C196.453 13.9843 197.912 14.8875 197.912 16.694C197.912 17.7351 197.406 19.1257 196.401 20.8621C195.393 22.601 192.509 26.0555 187.75 31.232C182.991 36.4099 180.09 39.6564 179.049 40.9769C171.891 50.3565 167.338 57.827 165.395 63.383C164.907 64.8425 164.664 66.059 164.664 67.0312Z" fill="white"/>
<path d="M235.015 45.0409C232.164 47.96 229.786 51.6588 227.875 56.1413C225.963 60.6213 225.009 63.7664 225.009 65.5743C225.009 67.3821 225.72 68.2827 227.146 68.2827C228.569 68.2827 230.932 67.2417 234.233 65.1558C237.532 63.0711 241.303 60.1196 245.541 56.2999C246.443 55.4642 246.897 55.5682 246.897 56.6118C246.897 56.7509 246.826 56.8886 246.689 57.0277C243.354 59.9467 240.54 62.3433 238.246 64.2187C235.953 66.0941 233.226 67.8838 230.064 69.585C226.902 71.2889 224.314 72.1388 222.299 72.1388C219.798 72.1388 217.939 71.5826 216.724 70.4714C215.506 69.3615 214.9 68.1463 214.9 66.8232C214.9 64.3227 215.351 62.3433 216.255 60.8838C217.157 59.4243 218.686 57.4111 220.84 54.8404C220.074 55.4642 218.876 56.5078 217.244 57.9647C215.61 59.4243 214.482 60.399 213.858 60.8838C213.233 61.3712 212.918 61.2321 212.918 60.4679C212.918 59.9831 213.476 59.2878 214.586 58.3832C215.696 57.4787 218.112 55.1874 221.829 51.5041C225.545 47.8209 228.083 45.6323 229.438 44.937C230.792 44.2442 231.902 43.8959 232.771 43.8959C233.64 43.8959 234.283 44.0181 234.699 44.2585C235.119 44.5055 235.223 44.7641 235.015 45.0409ZM236.369 39.5174C235.603 38.8935 235.291 37.9916 235.431 36.8089C235.568 35.6288 236.195 34.3772 237.306 33.0568C238.416 31.7363 239.912 31.0774 241.787 31.0774C242.344 31.0774 242.934 31.336 243.559 31.8598C244.184 32.3797 244.427 33.2478 244.289 34.4643C244.15 35.6808 243.594 36.8271 242.622 37.9032C241.648 38.9819 240.554 39.6746 239.34 39.9879C238.124 40.2985 237.133 40.1438 236.369 39.5174Z" fill="white"/>
<path d="M262.32 35.5574C263.848 33.2648 265.082 31.4401 266.021 30.0871C266.959 28.7316 267.704 27.7412 268.261 27.1148C268.818 26.491 270.068 25.9516 272.014 25.5006C273.958 25.0483 275.834 24.8235 277.641 24.8235C279.448 24.8235 280.351 25.0158 280.351 25.3966C280.351 25.78 278.858 27.3942 275.871 30.2431C272.882 33.0932 269.408 36.8778 265.447 41.6021C270.172 42.3689 273.265 43.8609 274.724 46.0846C275.28 47.0594 275.366 47.6832 274.985 47.96C274.601 48.2395 274.166 48.1355 273.681 47.6481C272.222 46.1886 269.894 45.4595 266.698 45.4595C265.308 45.4595 263.745 45.5985 262.008 45.8754C256.381 53.1028 252.836 59.0071 251.378 63.5936C250.891 64.9141 250.648 66.0253 250.648 66.926C250.648 69.3602 251.654 70.5741 253.669 70.5741C255.822 70.5741 258.845 69.0821 262.738 66.0942C267.808 62.2745 272.222 58.486 275.975 54.7352C276.668 53.971 277.122 53.7955 277.329 54.2127C277.537 54.6312 277.363 55.0835 276.81 55.5682C270.832 61.8235 265.813 66.4256 261.749 69.3771C257.684 72.3286 253.948 73.8064 250.545 73.8064C245.888 73.8064 243.562 71.3396 243.562 66.4074C243.562 64.0472 244.222 61.2321 245.541 57.9648L243.666 59.7362C243.111 60.2951 242.712 60.4498 242.467 60.2054C242.224 59.9637 242.102 59.7362 242.102 59.5283C242.102 59.3204 242.381 58.9746 242.936 58.4873C248.008 54.0398 251.483 50.6685 253.36 48.3772C252.038 48.8646 251.153 48.8971 250.702 48.4812C250.249 48.0653 249.937 47.509 249.764 46.8137C249.59 46.121 249.937 45.2684 250.806 44.2599C251.674 43.2553 252.959 42.5261 254.662 42.0713C256.365 41.619 257.632 41.3604 258.467 41.2889C259.506 39.7631 260.791 37.85 262.32 35.5574Z" fill="white"/>
<path d="M0 155C0 155 0.0727841 154.669 0.211854 154.029C0.369119 153.392 0.509489 152.428 0.902003 151.213C1.58435 148.764 2.79179 145.168 5.30154 141.075C7.7697 136.98 11.431 132.359 16.4544 127.935C21.4414 123.474 27.7333 119.204 35.0325 115.431C38.686 113.55 42.5722 111.753 46.6637 110.067C50.763 108.407 55.0768 106.887 59.5465 105.444C64.024 104.033 68.6705 102.733 73.4443 101.527C78.2234 100.33 83.1493 99.3083 88.1688 98.344C98.2221 96.4985 108.681 94.9779 119.358 94.0148C130.03 93.0037 140.902 92.4383 151.774 92.1459C162.65 91.9471 173.524 92.0718 184.215 92.4539C194.908 92.8191 205.408 93.6041 215.549 94.484C225.69 95.3626 235.463 96.5206 244.707 97.7617C253.953 98.9821 262.661 100.37 270.675 101.757C278.693 103.131 286.006 104.588 292.472 105.931C298.939 107.288 304.559 108.535 309.179 109.593C313.802 110.645 317.41 111.569 319.872 112.192C322.335 112.814 323.646 113.146 323.646 113.146C323.646 113.146 318.312 112.214 308.981 110.584C304.315 109.777 298.645 108.837 292.131 107.835C285.611 106.855 278.252 105.807 270.224 104.707C262.186 103.65 253.472 102.607 244.245 101.614C235.017 100.637 225.269 99.7931 215.182 99.0445C205.094 98.3011 194.653 97.828 184.048 97.468C173.439 97.147 162.658 97.0924 151.89 97.338C141.122 97.5668 130.359 98.0672 119.808 99.0055C114.53 99.4552 109.311 100.026 104.158 100.63C99.0098 101.26 93.9422 102.012 88.9721 102.834C79.0487 104.555 69.527 106.603 60.6655 109.142C51.8184 111.712 43.612 114.673 36.3518 118.088C29.1123 121.531 22.7788 125.337 17.6943 129.403C12.5813 133.44 8.78088 137.739 6.14896 141.615C3.51443 145.492 1.99766 148.912 1.16974 151.289C0.695348 152.463 0.483494 153.421 0.279439 154.043C0.0948793 154.675 0 155 0 155Z" fill="#$color-principal"/>
<path fill-rule="evenodd" clip-rule="evenodd" d="M335.245 34.4331C348.631 38.3568 356.296 52.3866 352.376 65.7705C348.455 79.1531 334.421 86.8198 321.043 82.8935C307.66 78.9738 299.99 64.9439 303.913 51.5665C307.836 38.1827 321.862 30.5095 335.245 34.4331Z" fill="#$color-principal" stroke="#$color-principal" stroke-width="4" stroke-miterlimit="10"/>
<path fill-rule="evenodd" clip-rule="evenodd" d="M313.437 125.022C302.899 134.165 286.943 133.032 277.813 122.498C268.68 111.96 269.802 96.0149 280.336 86.8783C290.878 77.7417 306.828 78.8711 315.966 89.4022C325.103 99.9385 323.968 115.889 313.437 125.022Z" fill="#$color-principal" stroke="#$color-principal" stroke-width="4" stroke-miterlimit="10"/>
<path fill-rule="evenodd" clip-rule="evenodd" d="M348.152 48.3837C353.862 59.4594 349.486 73.0382 338.381 78.736C327.41 84.3648 313.715 79.9394 308.089 68.9482C302.413 57.8686 306.81 44.2898 317.911 38.5973C328.933 32.9295 342.453 37.3067 348.152 48.3837ZM334.968 73.4645C340.151 70.8002 343.274 66.1098 343.511 61.2386C343.586 59.4971 343.367 57.7945 342.349 56.3233C341.433 55.0042 340.384 54.8885 339.1 55.8775C337.14 57.3903 335.19 58.9148 333.063 60.182C328.796 62.7501 324.257 64.6788 319.453 65.9785C317.92 66.3905 317.418 67.5836 318.06 69.0457C318.62 70.37 319.54 71.4124 320.708 72.2195C325.474 75.5063 330.461 75.4283 334.968 73.4645ZM329.465 51.7069C330.034 52.6557 330.745 53.5473 331.842 54.0606C333.555 54.8547 335.177 54.0476 335.581 52.1995C336.036 50.0317 334.604 47.2439 332.571 46.3562C330.83 45.592 329.249 46.4173 328.888 48.2966C328.65 49.4728 328.953 50.5749 329.465 51.7069ZM316.135 58.5288C316.667 59.5842 317.439 60.4237 318.525 60.9176C320.28 61.7078 321.828 60.9189 322.239 59.0383C322.726 56.8198 321.213 53.9969 319.105 53.1729C317.411 52.5088 315.953 53.2756 315.575 55.064C315.314 56.2752 315.555 57.4293 316.135 58.5288Z" fill="white"/>
<path fill-rule="evenodd" clip-rule="evenodd" d="M334.968 73.4645C330.461 75.4283 325.474 75.5062 320.709 72.2194C319.542 71.4123 318.621 70.3687 318.061 69.0456C317.419 67.5835 317.922 66.3904 319.455 65.9784C324.257 64.6788 328.797 62.7501 333.064 60.182C335.192 58.9148 337.141 57.3916 339.101 55.8775C340.385 54.8871 341.434 55.0041 342.35 56.3233C343.367 57.7945 343.586 59.497 343.512 61.2386C343.273 66.1097 340.151 70.8002 334.968 73.4645ZM340.4 58.0154C337.467 60.5329 334.327 62.4979 331.026 64.1966C327.722 65.9057 324.276 67.3002 320.562 68.2619C327.119 72.3234 339.791 65.7835 340.4 58.0154Z" fill="#$color-principal"/>
<path fill-rule="evenodd" clip-rule="evenodd" d="M329.465 51.7069C328.952 50.5749 328.65 49.4728 328.888 48.2966C329.249 46.4173 330.83 45.592 332.571 46.3562C334.604 47.2452 336.036 50.0317 335.581 52.1995C335.177 54.0476 333.555 54.8547 331.842 54.0606C330.747 53.5473 330.036 52.6557 329.465 51.7069Z" fill="#$color-principal"/>
<path fill-rule="evenodd" clip-rule="evenodd" d="M316.135 58.5289C315.555 57.4294 315.312 56.2766 315.575 55.064C315.953 53.2756 317.411 52.5088 319.105 53.173C321.213 53.997 322.726 56.8198 322.239 59.0383C321.828 60.9189 320.279 61.7091 318.525 60.9176C317.439 60.4238 316.668 59.5829 316.135 58.5289Z" fill="#$color-principal"/>
<path fill-rule="evenodd" clip-rule="evenodd" d="M340.4 58.0155C339.79 65.7836 327.118 72.3235 320.562 68.262C324.275 67.3003 327.722 65.9057 331.026 64.1967C334.327 62.498 337.467 60.5329 340.4 58.0155Z" fill="#FDFDFC"/>
<path fill-rule="evenodd" clip-rule="evenodd" d="M300.468 128.183C288.243 130.183 276.68 121.847 274.675 109.591C272.66 97.2847 280.991 85.6905 293.285 83.6955C305.489 81.7174 317.103 90.0807 319.109 102.298C321.133 114.564 312.769 126.174 300.468 128.183ZM297.09 107.084C291.886 108.197 288.008 110.925 285.922 115.91C285.238 117.558 284.964 119.292 285.488 121.053C285.925 122.538 286.853 122.984 288.332 122.48C290.593 121.705 292.84 120.901 295.16 120.298C300.123 119.018 305.153 118.743 310.241 118.89C311.862 118.938 312.651 118.017 312.492 116.4C312.317 114.622 311.526 113.116 310.366 111.808C306.801 107.805 302.276 106.51 297.09 107.084ZM303.079 101.805C305.168 101.468 306.548 100.153 307.66 98.4622C307.835 98.1906 307.981 97.8982 307.743 97.5745C307.471 97.2184 307.144 97.3042 306.778 97.4537C305.748 97.8891 304.681 98.1672 303.532 98.1607C301.503 98.1529 299.556 97.8644 297.83 96.7129C297.552 96.5322 297.263 96.4178 296.949 96.6466C296.676 96.8519 296.678 97.1067 296.738 97.4004C297.213 99.9542 300.461 102.205 303.079 101.805ZM289.599 104.026C292.302 103.561 294.592 100.395 294.173 97.7188C294.126 97.4225 294.046 97.1509 293.748 97.0469C293.325 96.9078 293.112 97.2158 292.869 97.494C290.746 99.9828 288.072 101.246 284.789 101.169C284.404 101.162 284.049 101.185 283.9 101.603C283.77 101.971 284.006 102.214 284.265 102.412C285.857 103.592 287.56 104.367 289.599 104.026ZM285.611 97.6031C285.736 97.5472 285.995 97.4537 286.234 97.312C289.276 95.6251 291.435 93.17 292.636 89.878C292.94 89.0111 292.934 88.2404 291.963 87.9103C291.071 87.6114 290.549 88.1598 290.275 88.9825C289.76 90.4719 288.948 91.7911 287.853 92.9179C286.946 93.8809 285.891 94.6594 284.725 95.2884C284.067 95.6277 283.799 96.1722 284.033 96.8753C284.257 97.5356 284.783 97.7643 285.611 97.6031ZM304.958 94.4385C305.765 94.3358 306.142 93.89 306.16 93.2194C306.174 92.463 305.672 92.0887 304.973 91.9652C301.979 91.4428 299.497 90.0508 297.619 87.6555C297.094 86.9732 296.439 86.7757 295.758 87.2929C295.064 87.831 295.125 88.5185 295.639 89.193C297.886 92.1095 300.865 93.7938 304.46 94.4281C304.653 94.4619 304.865 94.4307 304.958 94.4385Z" fill="white"/>
<path fill-rule="evenodd" clip-rule="evenodd" d="M297.09 107.084C302.276 106.51 306.801 107.805 310.367 111.808C311.528 113.116 312.318 114.622 312.493 116.4C312.652 118.017 311.863 118.938 310.242 118.89C305.155 118.743 300.125 119.018 295.162 120.298C292.842 120.901 290.594 121.705 288.333 122.48C286.853 122.985 285.925 122.538 285.489 121.053C284.965 119.292 285.24 117.558 285.923 115.91C288.008 110.925 291.886 108.197 297.09 107.084ZM308.209 112.922C304.569 109.322 300.477 108.862 296.055 109.962C292.671 110.802 290.064 112.68 288.381 116.169C294.848 113.524 301.278 112.488 308.209 112.922Z" fill="#$color-principal"/>
<path fill-rule="evenodd" clip-rule="evenodd" d="M303.079 101.805C300.459 102.207 297.211 99.9542 296.739 97.4004C296.68 97.1053 296.677 96.8519 296.95 96.6466C297.265 96.4178 297.553 96.5322 297.831 96.7128C299.557 97.8656 301.504 98.1529 303.533 98.1607C304.682 98.1672 305.749 97.889 306.78 97.4537C307.145 97.3042 307.472 97.2171 307.744 97.5745C307.982 97.8981 307.835 98.1906 307.661 98.4622C306.548 100.152 305.169 101.468 303.079 101.805Z" fill="#$color-principal"/>
<path fill-rule="evenodd" clip-rule="evenodd" d="M289.599 104.026C287.56 104.368 285.857 103.592 284.265 102.413C284.006 102.216 283.77 101.973 283.9 101.605C284.048 101.186 284.404 101.163 284.789 101.171C288.07 101.247 290.746 99.9841 292.869 97.4953C293.112 97.2171 293.325 96.9091 293.747 97.0482C294.046 97.1521 294.126 97.4238 294.172 97.7201C294.592 100.395 292.302 103.559 289.599 104.026Z" fill="#$color-principal"/>
<path fill-rule="evenodd" clip-rule="evenodd" d="M285.611 97.6031C284.783 97.7642 284.257 97.5355 284.032 96.8766C283.798 96.1735 284.066 95.6289 284.724 95.2897C285.889 94.6607 286.945 93.8822 287.852 92.9191C288.946 91.7923 289.76 90.4719 290.273 88.9838C290.548 88.1611 291.07 87.6113 291.962 87.9115C292.931 88.2416 292.939 89.0123 292.635 89.8792C291.434 93.1712 289.275 95.6263 286.233 97.3133C285.995 97.4536 285.736 97.5472 285.611 97.6031Z" fill="#$color-principal"/>
<path fill-rule="evenodd" clip-rule="evenodd" d="M304.958 94.4384C304.867 94.4306 304.655 94.4631 304.46 94.428C300.865 93.7938 297.886 92.1094 295.639 89.193C295.124 88.5185 295.064 87.8309 295.758 87.2929C296.438 86.7769 297.093 86.9732 297.619 87.6555C299.497 90.052 301.979 91.4427 304.973 91.9651C305.672 92.0886 306.174 92.4629 306.16 93.2193C306.142 93.8899 305.765 94.3344 304.958 94.4384Z" fill="#$color-principal"/>
<path fill-rule="evenodd" clip-rule="evenodd" d="M308.209 112.922C301.278 112.488 294.85 113.524 288.381 116.169C290.064 112.679 292.673 110.803 296.054 109.962C300.477 108.862 304.569 109.323 308.209 112.922Z" fill="#FDFDFC"/>
</svg>
