<svg width="30" height="28" viewBox="0 0 30 28" fill="none" xmlns="http://www.w3.org/2000/svg">
<path fill-rule="evenodd" clip-rule="evenodd" d="M15.0189 27.4985C11.9329 27.4985 8.83997 27.3825 5.76294 27.5422C3.92211 27.6377 3.49063 26.9635 3.57375 25.3506C3.68387 23.2185 3.5404 21.0742 3.62352 18.9391C3.67169 17.7165 3.3048 17.1645 1.98811 16.8461C-0.232841 16.3095 -0.64103 14.7274 1.00655 13.0899C5.19221 8.92749 9.48058 4.86267 13.6901 0.722881C14.6314 -0.202949 15.3572 -0.267136 16.3261 0.691044C20.5208 4.84367 24.7906 8.92492 28.9704 13.0909C30.6318 14.7469 30.2585 16.1734 28.0243 16.7521C26.7182 17.09 26.4133 17.7961 26.4355 18.9483C26.4789 21.1707 26.3805 23.3972 26.4715 25.6176C26.5292 27.0338 26.0893 27.5822 24.5407 27.5298C21.37 27.423 18.1929 27.4985 15.0189 27.4985ZM26.831 14.2601C23.1711 10.7232 19.4974 7.19907 15.8628 3.63747C15.1974 2.98534 14.7733 3.06647 14.1523 3.67547C10.5225 7.23091 6.86097 10.755 2.67637 14.806C6.15842 14.0455 6.20924 15.6722 6.08006 17.6353C5.95141 19.5923 6.16636 21.5713 6.01971 23.5261C5.8757 25.4543 7.21039 25.0949 8.24543 24.9834C9.31911 24.8684 11.125 25.8718 11.0419 23.521C10.982 21.8152 11.0503 20.1047 11.0313 18.3963C11.0196 17.2913 11.4702 16.6874 12.664 16.4856C18.0372 15.5788 19.0172 16.3352 19.0177 21.522C19.0177 22.0344 19.0823 22.5567 19.0061 23.0578C18.7631 24.6517 19.4561 24.9916 21.0539 25.0887C23.4331 25.233 24.3411 24.568 24.0388 22.191C23.8249 20.5083 24.1484 18.763 23.9589 17.0751C23.727 15.0252 24.492 14.2596 26.831 14.2601ZM16.9101 22.1602C16.9101 21.636 16.9063 21.2965 16.9106 20.9581C16.9265 19.6944 17.2166 18.4636 15.0623 18.4585C12.9944 18.4533 13.0648 19.5378 13.1321 20.8847C13.1659 21.5605 13.1294 22.2403 13.14 22.9176C13.1707 24.9346 14.0993 25.6474 16.0291 25.0219C17.7778 24.455 16.4489 22.9495 16.9101 22.1602Z" fill="#FAFBFC"/>
</svg>
