<svg width="37" height="37" viewBox="0 0 37 37" fill="none" xmlns="http://www.w3.org/2000/svg">
<g clip-path="url(#clip0)" filter="url(#filter0_d)">
<path fill-rule="evenodd" clip-rule="evenodd" d="M18.5498 36.9997C8.96502 37.045 1.26075 29.3743 1.0071 20.0616C0.731555 9.94647 8.65737 2.27759 17.906 2.00792C28.1834 1.70812 35.7665 9.83437 35.9944 18.9779C36.2504 29.2566 27.9989 37.0154 18.5498 36.9997ZM18.8693 35.1847C19.3233 35.1338 20.0996 35.0668 20.8696 34.9566C24.0913 34.4958 26.8571 33.0926 29.2372 30.8905C29.4525 30.6911 29.4953 30.5354 29.3649 30.2702C27.231 25.9224 23.7573 23.5074 18.9218 23.2631C14.0618 23.0175 9.72733 25.7856 7.64079 30.2613C7.52131 30.5175 7.51985 30.6809 7.7465 30.8898C10.7989 33.7027 14.4044 35.1079 18.8693 35.1847ZM18.5024 21.4063C21.9393 21.3969 24.7829 18.5611 24.7801 15.1451C24.7773 11.6728 21.9609 8.84883 18.4953 8.84362C15.0431 8.8384 12.2195 11.6783 12.224 15.1511C12.2285 18.5718 15.0829 21.4154 18.5024 21.4063Z" fill="#F8FAFF"/>
</g>
<defs>
<filter id="filter0_d" x="0" y="0" width="37" height="37" filterUnits="userSpaceOnUse" color-interpolation-filters="sRGB">
<feFlood flood-opacity="0" result="BackgroundImageFix"/>
<feColorMatrix in="SourceAlpha" type="matrix" values="0 0 0 0 0 0 0 0 0 0 0 0 0 0 0 0 0 0 127 0"/>
<feOffset dy="-1"/>
<feGaussianBlur stdDeviation="0.5"/>
<feColorMatrix type="matrix" values="0 0 0 0 0 0 0 0 0 0 0 0 0 0 0 0 0 0 0.25 0"/>
<feBlend mode="normal" in2="BackgroundImageFix" result="effect1_dropShadow"/>
<feBlend mode="normal" in="SourceGraphic" in2="effect1_dropShadow" result="shape"/>
</filter>
<clipPath id="clip0">
<rect width="35" height="35" fill="white" transform="translate(1 2)"/>
</clipPath>
</defs>
</svg>
